G04*
G04 #@! TF.GenerationSoftware,Altium Limited,Altium Designer,18.1.6 (161)*
G04*
G04 Layer_Physical_Order=1*
G04 Layer_Color=255*
%FSLAX25Y25*%
%MOIN*%
G70*
G01*
G75*
%ADD13R,0.13780X0.06299*%
%ADD14R,0.06496X0.12205*%
%ADD22C,0.05000*%
%ADD23C,0.03000*%
%ADD24C,0.09449*%
%ADD25C,0.08000*%
%ADD26C,0.08465*%
%ADD27C,0.32126*%
%ADD28C,0.05000*%
D13*
X32992Y320079D02*
D03*
Y341339D02*
D03*
Y280709D02*
D03*
Y301969D02*
D03*
Y242402D02*
D03*
Y263661D02*
D03*
D14*
X64130Y57221D02*
D03*
Y36158D02*
D03*
X26130Y57221D02*
D03*
Y36158D02*
D03*
D22*
X92992Y217795D02*
Y242402D01*
X110236Y259646D01*
Y370079D01*
X32992Y217795D02*
Y242402D01*
Y263661D02*
Y280709D01*
Y301969D02*
Y320079D01*
Y341339D02*
Y370079D01*
X101130Y43189D02*
Y73689D01*
Y43122D02*
Y43189D01*
X26130Y57221D02*
X64130D01*
X89630Y85189D02*
X101130Y73689D01*
X64130Y57221D02*
X87705D01*
X98279Y46647D01*
X62992Y137795D02*
X63130Y137657D01*
Y128189D02*
Y137657D01*
X39630Y104689D02*
X63130Y128189D01*
X39630Y85189D02*
Y104689D01*
X32992Y217795D02*
X32992Y217795D01*
X26130Y36158D02*
X64130D01*
X85555D01*
X92520Y43122D01*
D23*
X105130Y92689D02*
Y109689D01*
X70630Y144189D02*
X105130Y109689D01*
X70630Y144189D02*
Y166189D01*
X90130Y177689D02*
X92992Y174827D01*
Y137795D02*
Y174827D01*
D24*
X32992Y137795D02*
D03*
X62992D02*
D03*
X92992D02*
D03*
Y217795D02*
D03*
X32992D02*
D03*
D25*
X105130Y92689D02*
D03*
X115130D02*
D03*
X101130Y43189D02*
D03*
X91130D02*
D03*
D26*
X19630Y85189D02*
D03*
X29630D02*
D03*
X39630D02*
D03*
X49630D02*
D03*
X69630D02*
D03*
X79630D02*
D03*
X89630D02*
D03*
D27*
X32992Y370079D02*
D03*
X110236D02*
D03*
D28*
X70630Y166189D02*
D03*
X90130Y177689D02*
D03*
X44630Y57189D02*
D03*
M02*
