G04*
G04 #@! TF.GenerationSoftware,Altium Limited,Altium Designer,18.1.6 (161)*
G04*
G04 Layer_Color=16711935*
%FSLAX25Y25*%
%MOIN*%
G70*
G01*
G75*
%ADD48C,0.00394*%
D48*
X67768Y175890D02*
G03*
X67768Y175890I-1969J0D01*
G01*
X26299Y317913D02*
Y343504D01*
X39685Y317913D02*
Y343504D01*
X26299Y317913D02*
X39685D01*
X26299Y343504D02*
X39685D01*
X26299Y278543D02*
Y304134D01*
X39685Y278543D02*
Y304134D01*
X26299Y278543D02*
X39685D01*
X26299Y304134D02*
X39685D01*
X26299Y240236D02*
Y265827D01*
X39685Y240236D02*
Y265827D01*
X26299Y240236D02*
X39685D01*
X26299Y265827D02*
X39685D01*
X86783Y152559D02*
X93476D01*
X86783Y148819D02*
X93476D01*
Y152559D01*
X86783Y148819D02*
Y152559D01*
X79937Y168732D02*
X93323D01*
X79937Y161646D02*
X93323D01*
Y168732D01*
X79937Y161646D02*
Y168732D01*
X55244Y99372D02*
X60313Y94303D01*
X82016D01*
Y121075D01*
X60313D02*
X82016D01*
X55244Y116006D02*
X60313Y121075D01*
X55244Y99372D02*
Y116006D01*
X38447Y120575D02*
X43516Y115506D01*
X16744Y120575D02*
X38447D01*
X16744Y93803D02*
Y120575D01*
Y93803D02*
X38447D01*
X43516Y98872D01*
Y115506D01*
X57437Y195146D02*
Y202232D01*
X70823Y195146D02*
Y202232D01*
X57437Y195146D02*
X70823D01*
X57437Y202232D02*
X70823D01*
X94858Y184843D02*
X98402D01*
X94858Y191535D02*
X98402D01*
Y184843D02*
Y191535D01*
X94858Y184843D02*
Y191535D01*
X88260Y184843D02*
X92000D01*
X88260Y191535D02*
X92000D01*
Y184843D02*
Y191535D01*
X88260Y184843D02*
Y191535D01*
X62256Y192032D02*
X78004D01*
X62256Y172346D02*
X78004D01*
Y192032D01*
X62256Y172346D02*
Y192032D01*
X26823Y69146D02*
Y76232D01*
X13437Y69146D02*
Y76232D01*
X26823D01*
X13437Y69146D02*
X26823D01*
X32937Y69146D02*
Y76232D01*
X46323Y69146D02*
Y76232D01*
X32937Y69146D02*
X46323D01*
X32937Y76232D02*
X46323D01*
X31937Y146646D02*
Y153732D01*
X45323Y146646D02*
Y153732D01*
X31937Y146646D02*
X45323D01*
X31937Y153732D02*
X45323D01*
X64224Y146646D02*
Y153732D01*
X50839Y146646D02*
Y153732D01*
X64224D01*
X50839Y146646D02*
X64224D01*
X60587Y51382D02*
X67673D01*
X60587Y37996D02*
X67673D01*
X60587D02*
Y51382D01*
X67673Y37996D02*
Y51382D01*
X17813Y33303D02*
X34447D01*
X12744Y38372D02*
X17813Y33303D01*
X12744Y38372D02*
Y60075D01*
X39516D01*
Y38372D02*
Y60075D01*
X34447Y33303D02*
X39516Y38372D01*
X55813Y33303D02*
X72447D01*
X77516Y38372D01*
Y60075D01*
X50744D02*
X77516D01*
X50744Y38372D02*
Y60075D01*
Y38372D02*
X55813Y33303D01*
X17813D02*
X34447D01*
X39516Y38372D01*
Y60075D01*
X12744D02*
X39516D01*
X12744Y38372D02*
Y60075D01*
Y38372D02*
X17813Y33303D01*
M02*
