M48
;Layer_Color=9474304
;FILE_FORMAT=2:5
INCH,LZ
;TYPE=PLATED
T1F00S00C0.03000
T2F00S00C0.04528
T3F00S00C0.04724
T4F00S00C0.05000
T5F00S00C0.14409
T6F00S00C0.24252
%
T01
X004463Y0057189
X007063Y0166189
X009013Y0177689
T02
X001963Y0085189
X002963
X003963
X004963
X006963
X007963
X008963
T03
X0032992Y0137795
X0062992
X0092992
Y0217795
X0032992
T04
X009113Y0043189
X010113
X010513Y0092689
X011513
T05
X001863Y0014689
X011113
Y0413386
X001863
T06
X0032992Y0370079
X0110236
M30
