G04*
G04 #@! TF.GenerationSoftware,Altium Limited,Altium Designer,18.1.6 (161)*
G04*
G04 Layer_Color=16711935*
%FSLAX25Y25*%
%MOIN*%
G70*
G01*
G75*
%ADD16R,0.07296X0.13005*%
%ADD17C,0.10249*%
%ADD18C,0.08800*%
%ADD19C,0.09265*%
%ADD20C,0.00800*%
%ADD21C,0.32926*%
%ADD39R,0.04147X0.04540*%
%ADD40R,0.06115X0.07887*%
%ADD41R,0.13005X0.07296*%
%ADD42R,0.04540X0.04737*%
%ADD43R,0.04540X0.04147*%
%ADD44R,0.04698X0.02808*%
%ADD45R,0.07887X0.06115*%
D16*
X26130Y57221D02*
D03*
Y36158D02*
D03*
D17*
X32992Y137795D02*
D03*
X62992D02*
D03*
X92992D02*
D03*
Y217795D02*
D03*
X32992D02*
D03*
D18*
X105130Y92689D02*
D03*
X115130D02*
D03*
X101130Y43189D02*
D03*
X91130D02*
D03*
D19*
X19630Y85189D02*
D03*
X29630D02*
D03*
X39630D02*
D03*
X49630D02*
D03*
X69630D02*
D03*
X79630D02*
D03*
X89630D02*
D03*
D20*
X111130Y413386D02*
D03*
X18630D02*
D03*
X111130Y14689D02*
D03*
X18630D02*
D03*
D21*
X32992Y370079D02*
D03*
X110236D02*
D03*
D39*
X93181Y150689D02*
D03*
X87079D02*
D03*
D40*
X92043Y165189D02*
D03*
X81217D02*
D03*
X58716Y198689D02*
D03*
X69543D02*
D03*
X25543Y72689D02*
D03*
X14717D02*
D03*
X34216D02*
D03*
X45043D02*
D03*
X33217Y150189D02*
D03*
X44043D02*
D03*
X62945D02*
D03*
X52118D02*
D03*
D41*
X58098Y107689D02*
D03*
X79161D02*
D03*
X40661Y107189D02*
D03*
X19598D02*
D03*
D42*
X96630Y185236D02*
D03*
Y191142D02*
D03*
D43*
X90130Y185138D02*
D03*
Y191240D02*
D03*
D44*
X81429Y189689D02*
D03*
Y184689D02*
D03*
Y179689D02*
D03*
Y174689D02*
D03*
X58831Y189689D02*
D03*
Y184689D02*
D03*
Y179689D02*
D03*
Y174689D02*
D03*
D45*
X64130Y50102D02*
D03*
Y39276D02*
D03*
M02*
