G04*
G04 #@! TF.GenerationSoftware,Altium Limited,Altium Designer,18.1.6 (161)*
G04*
G04 Layer_Color=65535*
%FSLAX25Y25*%
%MOIN*%
G70*
G01*
G75*
%ADD10C,0.00591*%
%ADD11C,0.00787*%
%ADD12C,0.01000*%
D10*
X26496Y323425D02*
Y337992D01*
X39488Y323425D02*
Y337992D01*
X26496Y284055D02*
Y298622D01*
X39488Y284055D02*
Y298622D01*
X26496Y245748D02*
Y260315D01*
X39488Y245748D02*
Y260315D01*
X11992Y231795D02*
X114492D01*
Y116795D02*
Y231795D01*
X11992Y116795D02*
X114492D01*
X11992D02*
Y231795D01*
X100012Y80484D02*
Y105681D01*
Y80484D02*
X120091D01*
Y105681D01*
X100012D02*
X120091D01*
X106248Y30197D02*
Y55394D01*
X86169D02*
X106248D01*
X86169Y30197D02*
Y55394D01*
Y30197D02*
X106248D01*
D11*
X77516Y38372D02*
Y60075D01*
X68559D02*
X77516D01*
X50744D02*
X59701D01*
X50744Y38372D02*
Y60075D01*
X68559Y33303D02*
X72447D01*
X77516Y38372D01*
X50744D02*
X55813Y33303D01*
X59701D01*
X39516Y38372D02*
Y60075D01*
X30559D02*
X39516D01*
X12744D02*
X21701D01*
X12744Y38372D02*
Y60075D01*
X30559Y33303D02*
X34447D01*
X39516Y38372D01*
X12744D02*
X17813Y33303D01*
X21701D01*
D12*
X19598Y338583D02*
Y340582D01*
X20598D01*
X20931Y340249D01*
Y339582D01*
X20598Y339249D01*
X19598D01*
X20265D02*
X20931Y338583D01*
X21598D02*
X22264D01*
X21931D01*
Y340582D01*
X21598Y340249D01*
X19598Y295276D02*
Y297275D01*
X20598D01*
X20931Y296942D01*
Y296275D01*
X20598Y295942D01*
X19598D01*
X20265D02*
X20931Y295276D01*
X22931D02*
X21598D01*
X22931Y296608D01*
Y296942D01*
X22598Y297275D01*
X21931D01*
X21598Y296942D01*
X19685Y263779D02*
Y265779D01*
X20685D01*
X21018Y265446D01*
Y264779D01*
X20685Y264446D01*
X19685D01*
X20351D02*
X21018Y263779D01*
X21684Y265446D02*
X22018Y265779D01*
X22684D01*
X23017Y265446D01*
Y265112D01*
X22684Y264779D01*
X22351D01*
X22684D01*
X23017Y264446D01*
Y264113D01*
X22684Y263779D01*
X22018D01*
X21684Y264113D01*
X115506Y49243D02*
X114840D01*
X115173D01*
Y47577D01*
X114840Y47244D01*
X114506D01*
X114173Y47577D01*
X117172Y47244D02*
Y49243D01*
X116173Y48244D01*
X117506D01*
X7874Y112236D02*
Y110570D01*
X8207Y110236D01*
X8874D01*
X9207Y110570D01*
Y112236D01*
X9873Y111902D02*
X10207Y112236D01*
X10873D01*
X11206Y111902D01*
Y111569D01*
X10873Y111236D01*
X10540D01*
X10873D01*
X11206Y110903D01*
Y110570D01*
X10873Y110236D01*
X10207D01*
X9873Y110570D01*
X12655Y237113D02*
Y235447D01*
X12988Y235114D01*
X13655D01*
X13988Y235447D01*
Y237113D01*
X15987Y235114D02*
X14654D01*
X15987Y236447D01*
Y236780D01*
X15654Y237113D01*
X14988D01*
X14654Y236780D01*
X96136Y391877D02*
X95470D01*
X95803D01*
Y390211D01*
X95470Y389878D01*
X95136D01*
X94803Y390211D01*
X96803Y391544D02*
X97136Y391877D01*
X97802D01*
X98135Y391544D01*
Y391211D01*
X97802Y390878D01*
X97469D01*
X97802D01*
X98135Y390544D01*
Y390211D01*
X97802Y389878D01*
X97136D01*
X96803Y390211D01*
X18888Y391877D02*
X18222D01*
X18555D01*
Y390211D01*
X18222Y389878D01*
X17888D01*
X17555Y390211D01*
X20887Y389878D02*
X19555D01*
X20887Y391211D01*
Y391544D01*
X20554Y391877D01*
X19888D01*
X19555Y391544D01*
X111569Y76802D02*
X110903D01*
X111236D01*
Y75136D01*
X110903Y74803D01*
X110570D01*
X110236Y75136D01*
X112236Y74803D02*
X112902D01*
X112569D01*
Y76802D01*
X112236Y76469D01*
X50988Y69949D02*
X50655Y70282D01*
X49988D01*
X49655Y69949D01*
Y68616D01*
X49988Y68283D01*
X50655D01*
X50988Y68616D01*
X51654Y69949D02*
X51988Y70282D01*
X52654D01*
X52987Y69949D01*
Y69616D01*
X52654Y69282D01*
X52987Y68949D01*
Y68616D01*
X52654Y68283D01*
X51988D01*
X51654Y68616D01*
Y68949D01*
X51988Y69282D01*
X51654Y69616D01*
Y69949D01*
X51988Y69282D02*
X52654D01*
X12988Y69912D02*
X12655Y70245D01*
X11988D01*
X11655Y69912D01*
Y68579D01*
X11988Y68246D01*
X12655D01*
X12988Y68579D01*
X13655Y70245D02*
X14987D01*
Y69912D01*
X13655Y68579D01*
Y68246D01*
M02*
